<svg width="1000" height="1000" viewBox="0 0 1000 1000" fill="none" xmlns="http://www.w3.org/2000/svg">
<g clip-path="url(#clip0_1_2)">
<path d="M771 153.6C674.2 187.4 598.6 250.4 539 346.8C533.8 355.4 523 376.6 515.2 393.8C507.4 411 496.8 432.2 491.6 441C462.6 491.4 407.6 549.4 359 581C309.2 613.6 261.6 633.2 210.4 642.4C201.4 644 195 646.2 194 648C192.6 651 189.4 667.6 186.4 690C183.6 712 184.8 775.8 188.6 798C193.6 826.8 199.8 850.4 203 853.8C205.4 856.2 208.8 855.6 226.4 850C246.8 843.6 251.6 841.8 279.4 829C318.4 811 364.2 777 399.6 739.8C423.4 714.8 436.6 697.2 467.4 649.8C470 645.8 479.2 627.4 487.8 608.8C505.4 570.8 514.2 555 527.6 536C562 487.2 603.8 446.8 652.6 415C689.4 391 745.8 368.2 786 360.8C808.4 356.6 807.8 356.8 809.8 351.4C817.8 330.6 820.8 240.6 814.8 205.6C810.6 179.6 804 151.4 801.6 148.4C798.4 144.8 795 145.4 771 153.6Z" fill="url(#paint0_linear_1_2)"/>
<path d="M357 246C280.6 252.4 209 292 167.8 350.8C162.4 358.4 158 366.2 158 368C158 370.4 163 374 173.2 378.8C199 391.4 206.2 394.2 229 399.4C247.6 403.6 256 404.4 283 404.6C324.2 404.6 349.8 399.8 387 385.4C421.4 372.2 453.6 352.4 482.4 327C500.4 311 525 284.6 525 281.2C525 275.6 488.2 260.8 455 252.8C422.8 245.2 393.2 243 357 246Z" fill="url(#paint1_linear_1_2)"/>
<path d="M494 351.2C451.8 387.2 399.2 412.4 342.4 424.4C313.4 430.6 253.6 431 229 425.2C199.6 418.4 202.2 417.8 189.4 433.8C174.8 451.8 155.2 482.8 146.4 501.8C131.4 534.2 119 579.4 117.6 606.8L117 618.8L124 620.6C133.6 623.2 191.6 620.8 209 617C226.4 613.4 260.4 603.8 263 602C264.2 601.4 269.6 599 275 597C300.4 587.8 344.2 562 372 540C414.6 505.8 456.6 453.8 483.8 401C500 370 512.2 339.8 508.6 340.2C507.8 340.2 501.2 345.2 494 351.2Z" fill="url(#paint2_linear_1_2)"/>
<path d="M805.2 383.2C772.4 388.2 730.6 401.6 701.8 416C680.6 426.8 646 449.6 628 465C574.6 510.4 534.4 563.6 508.2 624C503.6 634.4 499 644.4 498 646.2C497 648 495.6 653 494.8 657.2L493.6 665L502.2 656.8C543.8 618.4 602.4 588.6 660 577.2C695 570 747.8 570 777 576.8C802.8 583 800.6 583.2 810 572.6C822.6 558.2 845.2 523.2 855 503C871.8 468.2 884.4 422.6 884.8 396.2C885 384 884.6 383.2 880 381.8C871.4 379.4 824 380.2 805.2 383.2Z" fill="url(#paint3_linear_1_2)"/>
<path d="M692 598C624.4 604.2 554.4 639.2 501.6 693.2C482.6 712.6 477.4 719.4 479 722C482.8 728.2 529.4 745.4 557 750.8C613.8 762 672 757.2 724.2 736.8C755.4 724.6 778 710.4 803.6 687C815.8 676 838.6 648.6 843.4 639.2C847.2 631.8 846.6 631.2 818.2 617.6C783.2 600.8 737.6 593.8 692 598Z" fill="url(#paint4_linear_1_2)"/>
</g>
<defs>
<linearGradient id="paint0_linear_1_2" x1="705.964" y1="728.5" x2="192.131" y2="307.257" gradientUnits="userSpaceOnUse">
<stop stop-color="#C200EE"/>
<stop offset="0.503125" stop-color="#F20271"/>
<stop offset="1" stop-color="#C200EE"/>
</linearGradient>
<linearGradient id="paint1_linear_1_2" x1="460.073" y1="376.035" x2="368.494" y2="183.1" gradientUnits="userSpaceOnUse">
<stop stop-color="#C200EE"/>
<stop offset="0.503125" stop-color="#F20271"/>
<stop offset="1" stop-color="#C200EE"/>
</linearGradient>
<linearGradient id="paint2_linear_1_2" x1="439.843" y1="571.4" x2="237.892" y2="313.112" gradientUnits="userSpaceOnUse">
<stop stop-color="#C200EE"/>
<stop offset="0.503125" stop-color="#F20271"/>
<stop offset="1" stop-color="#C200EE"/>
</linearGradient>
<linearGradient id="paint3_linear_1_2" x1="815.625" y1="614.155" x2="610.788" y2="355.701" gradientUnits="userSpaceOnUse">
<stop stop-color="#C200EE"/>
<stop offset="0.503125" stop-color="#F20271"/>
<stop offset="1" stop-color="#C200EE"/>
</linearGradient>
<linearGradient id="paint4_linear_1_2" x1="780.252" y1="728.133" x2="688.573" y2="535.332" gradientUnits="userSpaceOnUse">
<stop stop-color="#C200EE"/>
<stop offset="0.503125" stop-color="#F20271"/>
<stop offset="1" stop-color="#C200EE"/>
</linearGradient>
<clipPath id="clip0_1_2">
<rect width="1000" height="1000" fill="white"/>
</clipPath>
</defs>
</svg>
